<svg xmlns="http://www.w3.org/2000/svg" version="1.1" viewBox="-5.0 -10.0 110.0 135.0">
 <path d="m90.102 21.699c-1.1016 0-1.8984 0.89844-1.8984 1.8984v22.699l3.8008 3.1992-0.003906-25.895c0-1.1016-0.80078-1.9023-1.8984-1.9023zm-26.402 3.8008h8.8984c0.60156 0 1.1016 0.5 1.1016 1.1016v7.3008l-5.1016-4.1992c-0.30078-0.30078-0.69922-0.30078-1 0l-5.1016 4.1992v-7.1992c0.10547-0.70312 0.60547-1.2031 1.2031-1.2031zm-42.801-8.3984h8.8984c0.60156 0 1.1016 0.5 1.1016 1.1016v6.8984l-5.1016-4.6992c-0.30078-0.30078-0.69922-0.30078-1 0l-5.1016 4.6992v-6.8984c0.10547-0.60156 0.60547-1.1016 1.2031-1.1016zm47.301-12.703c1.5 0 2.6992 1.1992 2.6992 2.6992v17.699h-5.3984v-13.797c0-0.60156-0.69922-1.3008-1.5-1.3008h-34.5c-0.80078 0-1.5 0.69922-1.5 1.3008v5.3008h-5.3008v-9.1992c0-1.5 1.1992-2.6992 2.6992-2.6992zm-24.699 33.5v4h-36.301v-4l18.199-17zm-14.801 25.602-3 8.6992 7.6992 1.1016-11 12.598 3.3984-9.3984-8.3984-1.3008zm-21.5-20.898h36.301v7.6992h-36.301zm36.301 8.5v44.5h-36.301v-44.5zm49.301 0v2.8984h-48.5v-3.5l23.898-20zm-23.801 16.199c-0.39844-0.39844-1.1992-0.39844-1.6016 0-1.6992 1.3008-3.1016 3.1992-4 5.3008-1.1992 2.5-1.8008 5.3008-1.8984 7.3984-0.19922 4.1016 2.6016 9.1992 6.1992 11.199l-0.10156-6.1992c-0.10156 0-0.10156-0.10156-0.10156-0.10156l-2.1992-2.1992c-0.30078-0.30078-0.30078-0.80078 0-1.1016 0.30078-0.30078 0.80078-0.30078 1.1016 0l1.3008 1.3008v-3.1992s-0.10156 0-0.10156-0.10156l-2.1992-2.1992c-0.30078-0.30078-0.30078-0.80078 0-1.1016 0.30078-0.30078 0.80078-0.30078 1.1016 0l1.1992 1.1992v-3.3984c0-0.39844 0.30078-0.80078 0.80078-0.80078 0.39844 0 0.80078 0.30078 0.80078 0.80078v3.3984l1.1016-1.1016c0.30078-0.30078 0.80078-0.30078 1.1016 0 0.30078 0.30078 0.30078 0.80078 0 1.1016l-2.5039 1.9023v3.1992l1.1016-1.1016c0.30078-0.30078 0.80078-0.30078 1.1016 0 0.30078 0.30078 0.30078 0.80078 0 1.1016l-2.2031 2.1016 0.10156 6.1992c4-2.8984 5.8984-6.8984 5.8008-10.801-0.10156-2.1016-0.69922-5-2-7.6016-0.90234-2.0977-2.2031-3.8945-3.9023-5.1953zm-0.80078-1.1016c0.5 0 0.89844 0.19922 1.3008 0.5 1.8008 1.3984 3.3008 3.3984 4.3008 5.6016 1.1992 2.6016 1.8984 5.5 1.8984 7.6992 0.10156 2.1992-0.5 4.3008-1.6016 6.3008-0.89844 1.6992-2.3008 3.8984-5 5.3984v3.8008h23.602v-31.5h-48.398v31.602h23.301v-3.6992c-2.8984-1.3984-4.6016-4-5.3984-5.6016-1.1016-2-1.6016-4.1992-1.5-6.3984 0.10156-2.1016 0.69922-5 2-7.6016 1-2.1992 2.3984-4.1992 4.3008-5.6016 0.29688-0.30078 0.69531-0.5 1.1953-0.5zm-23.898-11.398h48.5v8.5h-48.5z" fill="rgb(88, 88, 255)" fill-rule="evenodd"/>
</svg>