<?xml version="1.0" encoding="UTF-8"?>
<svg width="1200pt" height="1200pt" version="1.1" viewBox="0 0 1200 1200" xmlns="http://www.w3.org/2000/svg">
 <path d="m1088.4 248.4-420-230.4c-43.199-24-94.801-24-138 0l-420 230.4c-45.598 25.203-74.398 73.203-74.398 126v451.2c0 52.801 28.801 100.8 74.398 126l420 230.4c21.602 12 45.602 18 69.602 18s48-6 68.398-18l420-230.4c45.602-25.199 74.398-73.199 74.398-126l0.003906-451.2c0-52.797-28.801-100.8-74.402-126zm26.402 577.2c0 34.801-18 67.199-49.199 84l-420 230.4c-28.801 15.602-63.602 15.602-92.398 0l-420-230.4c-30-16.801-49.199-49.199-49.199-84l-0.003906-451.2c0-34.801 18-67.199 49.199-84l420-230.4c15.602-8.3984 31.199-12 46.801-12s31.199 3.6016 45.602 12l418.8 230.4c31.199 16.801 50.398 49.199 50.398 84v451.2z"/>
 <path d="m673.2 484.8c-13.199 0-24 10.801-24 24v66h-98.398v-66c0-13.199-10.801-24-24-24s-24 10.801-24 24v178.8c0 13.199 10.801 24 24 24s24-10.801 24-24v-64.801h98.398v64.801c0 13.199 10.801 24 24 24s24-10.801 24-24v-178.8c0-13.199-10.801-24-24-24z"/>
 <path d="m902.4 606h-15.602v-118.8c0-13.199-10.801-24-24-24s-24 10.801-24 24v118.8h-48l26.398-52.801c6-12 1.1992-26.398-10.801-32.398s-26.398-1.1992-32.398 10.801l-44.398 87.602c-6 12-1.1992 26.398 10.801 32.398h1.1992c2.3984 1.1992 6 2.3984 9.6016 2.3984h87.602v42c0 13.199 10.801 24 24 24s24-10.801 24-24v-42h15.602c14.398 0 24-10.801 24-24-0.003906-13.199-10.801-24-24.004-24z"/>
 <path d="m430.8 643.2c-13.199 13.199-30 21.602-49.199 21.602-36 0-66-30-66-66s30-66 66-66c15.602 0 30 6 42 15.602 9.6016 8.3984 25.199 6 33.602-3.6016 8.3984-9.6016 6-25.199-3.6016-33.602-20.398-16.801-46.801-26.398-73.199-26.398-62.398 0-114 51.602-114 114 0 62.398 51.602 114 114 114 31.199 0 62.398-14.398 85.199-37.199 9.6016-9.6016 8.3984-25.199-1.1992-33.602-9.6016-9.6016-25.203-8.3984-33.602 1.1992z"/>
</svg>
