<svg xmlns="http://www.w3.org/2000/svg" version="1.1" viewBox="-5.0 -10.0 110.0 135.0">
  <path d="m37.242 64.281c-2.1445 0-4.2891-0.81641-5.918-2.4492-3.2656-3.2656-3.2656-8.5742 0-11.84 3.2617-3.2656 8.5742-3.2656 11.84 0 0.40234 0.40234 0.40234 1.0508 0 1.4531-0.40234 0.40234-1.0508 0.40234-1.4531 0-2.4648-2.4648-6.4688-2.4609-8.9336 0-2.4609 2.4609-2.4609 6.4688 0 8.9336 2.4648 2.4609 6.4727 2.4609 8.9336 0 0.40234-0.40234 1.0508-0.40234 1.4531 0 0.40234 0.40234 0.40234 1.0508 0 1.4531-1.6289 1.6328-3.7734 2.4492-5.918 2.4492z" fill="rgb(88, 88, 255)" fill-rule="evenodd"/>
  <path d="m54.148 49.598c-3.4844 0-6.3164 2.832-6.3164 6.3164 0 3.4844 2.8359 6.3164 6.3164 6.3164 3.4844 0 6.3164-2.832 6.3164-6.3164 0-3.4844-2.832-6.3164-6.3164-6.3164zm0 14.688c-4.6172 0-8.3711-3.7539-8.3711-8.3711 0-4.6172 3.7539-8.3711 8.3711-8.3711 4.6172 0 8.3711 3.7578 8.3711 8.3711 0 4.6172-3.7539 8.3711-8.3711 8.3711z" fill="rgb(88, 88, 255)" fill-rule="evenodd"/>
  <path d="m70.102 66.438h-4.7383c-0.39062 0-0.74609-0.21875-0.92188-0.57031-0.17188-0.35156-0.13281-0.76563 0.10156-1.0781l3.8984-5.1484c0.027344-0.039063 0.058594-0.074219 0.09375-0.10547 0.28516-0.28516 0.44141-0.66797 0.44141-1.0742s-0.15625-0.78516-0.44141-1.0742c-0.59375-0.59375-1.5547-0.58984-2.1445 0-0.40234 0.40234-1.0508 0.40234-1.4531 0-0.40234-0.40234-0.40234-1.0508 0-1.4531 1.3945-1.3945 3.6602-1.3945 5.0547 0 0.67578 0.67578 1.0469 1.5703 1.0469 2.5273 0 0.92969-0.35156 1.8047-0.99219 2.4727l-2.6133 3.4492h2.6719c0.56641 0 1.0273 0.46094 1.0273 1.0273s-0.46094 1.0273-1.0273 1.0273z" fill="rgb(88, 88, 255)" fill-rule="evenodd"/>
  <path d="m18.246 54.258c-6.1016 0-11.07 4.9648-11.07 11.07s4.9688 11.07 11.07 11.07h61.246c7.3477 0 13.328-5.9805 13.328-13.328 0-6.1953-4.3828-11.664-10.426-13.008-0.28906-0.066406-0.53516-0.25-0.67969-0.51172-0.14062-0.26172-0.16406-0.57031-0.058594-0.84766 0.55469-1.4922 0.83594-3.0547 0.83594-4.6562 0-7.3516-5.9805-13.328-13.328-13.328-1.9492 0-3.832 0.41406-5.5938 1.2305-0.24609 0.11328-0.53516 0.125-0.78906 0.03125-0.25781-0.097657-0.46484-0.28906-0.57812-0.53906-2.1562-4.7617-6.9219-7.8359-12.145-7.8359-7.3477 0-13.328 5.9805-13.328 13.328v0.039062c0.003906 0.039063 0.003906 0.078125 0.003906 0.11719 0 0.35547-0.18359 0.68359-0.48438 0.87109s-0.67969 0.20703-0.99609 0.046874c-1.5391-0.76172-3.1914-1.1445-4.9062-1.1445-6.1055 0-11.074 4.9648-11.074 11.07 0 1.7188 0.38672 3.3672 1.1445 4.8984 0.16406 0.33594 0.13672 0.73438-0.074219 1.0391-0.21094 0.30859-0.57422 0.47656-0.94922 0.4375-0.39062-0.039063-0.77734-0.058594-1.1484-0.058594zm0 24.199c-7.2383 0-13.125-5.8867-13.125-13.125 0-7.1328 5.7188-12.953 12.812-13.121-0.47266-1.3672-0.71094-2.7969-0.71094-4.2695 0-7.2383 5.8906-13.125 13.129-13.125 1.5156 0 2.9844 0.25391 4.3906 0.75391 0.69531-7.8438 7.3008-14.016 15.324-14.016 5.6914 0 10.914 3.1641 13.574 8.1445 1.7656-0.68359 3.6211-1.0273 5.5312-1.0273 8.4844 0 15.387 6.9023 15.387 15.383 0 1.4648-0.20703 2.9062-0.60938 4.2969 2.9258 0.88672 5.5586 2.6484 7.5 5.0391 2.2148 2.7266 3.4375 6.168 3.4375 9.6875 0 8.4844-6.9023 15.383-15.387 15.383h-61.246z" fill="rgb(88, 88, 255)" fill-rule="evenodd"/>
</svg>
