<svg xmlns="http://www.w3.org/2000/svg" version="1.1" viewBox="-5.0 -10.0 110.0 135.0">
 <path d="m55.555 55.988c-0.019532-0.054687-0.042969-0.10938-0.070313-0.16797-0.33984 0.38672-0.75781 0.70313-1.2266 0.92188-1.0977 0.46875-2.3242 0.53125-3.4609 0.17578-0.32422-0.082031-0.58594-0.31641-0.69922-0.62891-0.11328-0.3125-0.0625-0.66406 0.13281-0.92969 2.1875-3.0156 1.2891-5.1016-0.25781-7.4102-0.22656 0.30078-0.47266 0.61328-0.72656 0.94922-2.0664 2.6758-4.9844 6.4648-4.9844 8.1016l-0.003907-0.003906c0.015626 1.3594 0.61328 2.6484 1.6406 3.5391 2.3594 2.0234 5.8438 2.0234 8.2031 0 1.0273-0.89062 1.625-2.1797 1.6406-3.543 0.007812-0.34375-0.058594-0.68359-0.18359-1.0039zm0.79297-2.6992c0.42188 0.62109 0.78125 1.2812 1.0742 1.9727 0.22266 0.55078 0.33594 1.1406 0.32812 1.7344-0.015625 1.9297-0.85547 3.7617-2.3086 5.0312-3.1211 2.7148-7.7617 2.7148-10.883 0-1.4531-1.2695-2.293-3.1016-2.3086-5.0312 0-2.3086 3.168-6.418 5.4102-9.3203 0.60547-0.78516 1.1406-1.4805 1.5195-2.0195v-0.003906c0.15234-0.21875 0.38672-0.36719 0.64844-0.41406 0.26562-0.046875 0.53516 0.015625 0.75 0.17188 0.10156 0.070313 0.1875 0.15625 0.25781 0.25781l0.035156 0.050781c2.1445 3.0547 3.9258 5.5859 1.8867 9.3945 0.22266-0.023437 0.44141-0.085937 0.64844-0.17969 0.5625-0.3125 0.98438-0.83594 1.1641-1.4531 0.13281-0.35547 0.45313-0.60547 0.83203-0.64453 0.375-0.042969 0.74219 0.13281 0.94922 0.45312zm-17.5-29.801h3.5273l0.003906-9.3672c-0.007812-2.2734-1.8477-4.1133-4.1211-4.1211h-2.3711c-1.2734 0.027344-2.293 1.0664-2.293 2.3398 0 1.2773 1.0195 2.3164 2.293 2.3438h1.9609c0.26562 0 0.51953 0.10547 0.70703 0.29297s0.29297 0.44141 0.29297 0.70703zm18.766 0h3.5273v-7.8008h0.003906c0-0.55078 0.44531-1 1-1h1.9609c1.2734-0.027344 2.293-1.0664 2.293-2.3398 0-1.2773-1.0195-2.3164-2.293-2.3438h-2.3633c-2.2773 0.003906-4.1172 1.8477-4.125 4.125v9.3594zm3.9609 62.312h-23.148l-2.4258 4.1992h28l-2.4297-4.1992zm-17.184-62.312h2.3945v-4.0352c0-0.55078 0.44922-1 1-1h4.4219c0.26562 0 0.51953 0.10547 0.70703 0.29297s0.29297 0.44531 0.29297 0.70703v4.0352h2.4023v-8.3594h-11.219zm26.609 15.012h-42c-0.58984 0.003906-1.0703 0.48047-1.0703 1.0703 0.003906 0.58984 0.48047 1.0664 1.0703 1.0703h42c0.0625 0 0.125-0.003906 0.1875-0.015625h0.015625c0.5-0.10156 0.86328-0.54297 0.86328-1.0547-0.003906-0.58594-0.47656-1.0664-1.0664-1.0703zm-41.379-2.0117h40.758v-2.7656c-0.015625-4.5352-3.6914-8.207-8.2266-8.2227h-24.301c-4.5352 0.015625-8.2109 3.6875-8.2266 8.2266v2.7656zm41.379 32.156h-42c-0.0625 0-0.125 0.003907-0.1875 0.015625h-0.015625c-0.5 0.10156-0.86328 0.54297-0.86328 1.0547 0 0.58984 0.47656 1.0703 1.0664 1.0742h42c0.0625 0 0.125-0.003906 0.1875-0.015624h0.015625c0.5-0.10156 0.86328-0.53906 0.86328-1.0508 0-0.59375-0.47656-1.0742-1.0664-1.0781zm-0.62109 4.1562h-40.758v2.7656-0.003906c0.015625 4.5391 3.6914 8.2109 8.2266 8.2266h24.301c4.5352-0.015624 8.2109-3.6875 8.2266-8.2266v-2.7617zm-40.758-6.1641v-23.988h40.758v23.988zm19.172-43.148v-3.0273h2.4141v3.0312z" fill=" rgb(88, 88, 255)" fill-rule="evenodd"/>
</svg>