<svg xmlns="http://www.w3.org/2000/svg" version="1.1" viewBox="-5.0 -10.0 110.0 135.0">
    <path d="m40.605 98.184c-7.0703-2.9297-11.816-6.8672-15.355-12.324-9.5977-14.445-6.668-33.133 7.1719-45.961 4.2461-3.9375 8.7891-7.5742 13.031-11.617 6.7695-6.3633 9.4961-14.344 7.8789-23.637-0.10156-0.70703-0.10156-1.5156-0.20312-3.332 19.09 15.152 20.402 34.547 16.867 55.656 6.2617-3.1328 7.8789-6.668 9.4961-20.504 13.637 19.496 14.039 54.242-12.426 62.324 6.668-12.121 5.3555-22.523-5.2539-31.516-5.7578-4.7461-11.012-9.5977-9.4961-18.383-10.297 7.6758-10.598 18.281-9.0859 29.695-4.3438-2.625-4.9492-6.1602-5.5547-10-4.1406 9.8984-5.5547 19.695 2.9297 29.598z" fill="  rgb(248, 88, 88)"/>
   </svg>