<svg xmlns="http://www.w3.org/2000/svg" version="1.1" viewBox="-5.0 -10.0 110.0 135.0">
 <path d="m32.824 11.848h-6.75v7.5742h26.938v-7.5742h-6.75v-0.003906c-0.56641 0-1.0703-0.40625-1.1758-0.98438-0.14844-0.81641-0.77344-1.5703-1.6953-2.1367-1.0117-0.62109-2.3594-0.99609-3.8516-0.99609-1.4922 0-2.8398 0.37891-3.8516 0.99609-0.89062 0.54688-1.5039 1.2695-1.6758 2.0547-0.0625 0.60156-0.57422 1.0703-1.1914 1.0703zm31.996 65.777h-5.3086c-0.52734 0-1.0078 0.21484-1.3555 0.56641-0.34766 0.34766-0.56641 0.82812-0.56641 1.3555v5.6641l7.2266-7.582zm-45.203-44.66c-0.66016 0-1.1992-0.53516-1.1992-1.1992 0-0.66016 0.53516-1.1992 1.1992-1.1992h0.39844c0.66016 0 1.1992 0.53516 1.1992 1.1992 0 0.66016-0.53516 1.1992-1.1992 1.1992zm0 9.3164c-0.66016 0-1.1992-0.53516-1.1992-1.1992 0-0.66016 0.53516-1.1992 1.1992-1.1992h0.39844c0.66016 0 1.1992 0.53516 1.1992 1.1992 0 0.66016-0.53516 1.1992-1.1992 1.1992zm0 9.3164c-0.66016 0-1.1992-0.53516-1.1992-1.1992 0-0.66016 0.53516-1.1992 1.1992-1.1992h0.39844c0.66016 0 1.1992 0.53516 1.1992 1.1992 0 0.66016-0.53516 1.1992-1.1992 1.1992zm0 9.3164c-0.66016 0-1.1992-0.53516-1.1992-1.1992 0-0.66016 0.53516-1.1992 1.1992-1.1992h0.39844c0.66016 0 1.1992 0.53516 1.1992 1.1992 0 0.66016-0.53516 1.1992-1.1992 1.1992zm5.2578 18.633c-0.66016 0-1.1992-0.53516-1.1992-1.1992 0-0.66016 0.53516-1.1992 1.1992-1.1992h23.723c0.66016 0 1.1992 0.53516 1.1992 1.1992 0 0.66016-0.53516 1.1992-1.1992 1.1992zm-5.2578 0c-0.66016 0-1.1992-0.53516-1.1992-1.1992 0-0.66016 0.53516-1.1992 1.1992-1.1992h0.39844c0.66016 0 1.1992 0.53516 1.1992 1.1992 0 0.66016-0.53516 1.1992-1.1992 1.1992zm5.2578-9.3164c-0.66016 0-1.1992-0.53516-1.1992-1.1992 0-0.66016 0.53516-1.1992 1.1992-1.1992h34.59c0.66016 0 1.1992 0.53516 1.1992 1.1992 0 0.66016-0.53516 1.1992-1.1992 1.1992zm-5.2578 0c-0.66016 0-1.1992-0.53516-1.1992-1.1992 0-0.66016 0.53516-1.1992 1.1992-1.1992h0.39844c0.66016 0 1.1992 0.53516 1.1992 1.1992 0 0.66016-0.53516 1.1992-1.1992 1.1992zm39.492-34.699c-3.1758 0.27344-5.9336 1.8008-7.832 4.0547-1.8984 2.2539-2.9375 5.2383-2.6641 8.418 0.27344 3.1758 1.8008 5.9336 4.0547 7.8359 1.8242 1.5352 4.1211 2.5078 6.6172 2.6797h0.18359c0.074219 0 0.15234 0.007813 0.22266 0.019531 0.46094 0.015626 0.92578 0.003907 1.3945-0.035156 3.1758-0.26953 5.9336-1.8008 7.8359-4.0547 1.8984-2.2539 2.9375-5.2383 2.6641-8.418-0.27344-3.1758-1.8008-5.9336-4.0547-7.8359-2.2539-1.8984-5.2383-2.9375-8.418-2.6641zm-0.19531-2.3867c3.8242-0.32812 7.4219 0.92969 10.148 3.2266s4.5781 5.6328 4.9062 9.4609c0.32812 3.8242-0.92969 7.4219-3.2266 10.148-2.2969 2.7266-5.6328 4.5781-9.4609 4.9062-0.69531 0.058593-1.3867 0.066406-2.0625 0.023437-0.03125 0-0.0625-0.003906-0.09375-0.007812-3.0078-0.20703-5.7852-1.3867-7.9922-3.2461-2.7266-2.2969-4.5781-5.6328-4.9062-9.4609-0.32812-3.8242 0.92969-7.4219 3.2266-10.148s5.6328-4.5781 9.4609-4.9062zm12.777 31.586v20.348c0 1.9766-0.80859 3.7773-2.1133 5.082-1.3047 1.3047-3.1055 2.1133-5.082 2.1133l-49.902 0.003906c-1.9766 0-3.7773-0.80859-5.082-2.1133-1.3047-1.3047-2.1133-3.1055-2.1133-5.082l-0.003907-63.68c0-1.9766 0.80859-3.7773 2.1133-5.082 1.3047-1.3047 3.1055-2.1133 5.082-2.1133h9.0859v2.8828h-9.0859c-1.1875 0-2.2656 0.48438-3.0508 1.2656-0.78125 0.78125-1.2656 1.8594-1.2656 3.0508v63.676c0 1.1875 0.48437 2.2656 1.2656 3.0508 0.78125 0.78125 1.8594 1.2656 3.0508 1.2656h41.816 0.003906 0.03125 0.003906 0.03125 0.003907 0.011719s0.019531-0.003907 0.019531-0.003907h0.011719l0.015624-0.003906h0.007813l0.015625-0.003906h0.003906l0.011719-0.003907 0.019531-0.003906 0.007813-0.003906h0.003906l0.015625-0.003906 0.011719-0.003906 0.015625-0.003907 0.019531-0.003906h0.007813l0.011718-0.003906h0.003906l0.019532-0.007813 0.007812-0.003906 0.019532-0.007812 0.007812-0.003907 0.023438-0.007812h0.003906 0.003906c0.007812-0.003907 0.015625-0.003907 0.023438-0.007813h0.003906 0.003906l0.015625-0.007812h0.003906l0.011719-0.003906 0.019531-0.007813 0.003907-0.003906 0.019531-0.007813h0.003906l0.003906-0.003906 0.015625-0.007812 0.003906-0.003907 0.015626-0.007812 0.011718-0.007813 0.003906-0.003906 0.019532-0.011719 0.003906-0.003906 0.023438-0.011719 0.011718-0.007812 0.003906-0.003906 0.015626-0.007813 0.003906-0.003906 0.015625-0.011719 0.003906-0.003906h0.003906l0.019531-0.011719 0.007813-0.007813 0.015625-0.011718 0.007812-0.003906 0.015626-0.011719 0.023437-0.023438 0.003906-0.003906 0.015625-0.011719 0.019532-0.019531s0.007812-0.007813 0.007812-0.007813l0.019531-0.015624 0.019531-0.019532v-0.003906l0.019532-0.019531 0.011718-0.011719 0.011719-0.011719c0.011719-0.011719 0.023438-0.023437 0.035157-0.039062l0.003906-0.003907v-0.003906l0.015625-0.019531v-0.003906h0.003906s11.098-11.645 11.098-11.645c0.24219-0.21875 0.39062-0.53516 0.39062-0.88672v-12.113c0.28125-0.14453 0.55859-0.29297 0.83203-0.44922l0.0625 0.0625c0.53516 0.53516 1.2422 0.80859 1.9492 0.80859h0.035156zm-2.8828-35.008c1 0.51172 1.9648 1.1172 2.8828 1.8125v-10.133c0-1.9766-0.80859-3.7773-2.1133-5.082-1.3047-1.3047-3.1055-2.1133-5.082-2.1133h-9.0859v2.8828h9.0859c1.1875 0 2.2656 0.48438 3.0508 1.2656 0.78125 0.78125 1.2656 1.8594 1.2656 3.0508v8.3164zm-28.27 17.273c0 0.73828 0.039063 1.4766 0.12109 2.2109h-15.785c-0.66016 0-1.1992 0.53516-1.1992 1.1992 0 0.66016 0.53516 1.1992 1.1992 1.1992h16.207c0.59375 2.4492 1.6641 4.8086 3.2227 6.9219h-19.43c-0.66016 0-1.1992 0.53516-1.1992 1.1992 0 0.66016 0.53516 1.1992 1.1992 1.1992h21.516c3.2305 3.1562 7.2891 4.9609 11.469 5.4102 2.8711 0.30859 5.7969-0.019532 8.5508-0.98438v9.8906h-6.9023c-1.1875 0-2.2656 0.48437-3.0508 1.2656-0.78125 0.78125-1.2656 1.8594-1.2656 3.0508v7.4531l-40.598-0.011719c-0.52734 0-1.0078-0.21484-1.3555-0.56641-0.34766-0.34766-0.56641-0.82812-0.56641-1.3555v-63.676c0-0.52734 0.21484-1.0078 0.56641-1.3555 0.34766-0.34766 0.82812-0.56641 1.3555-0.56641h9.0859v1.1367c0 0.66016 0.53516 1.1992 1.1992 1.1992h29.332c0.66016 0 1.1992-0.53516 1.1992-1.1992v-1.1367h9.0859c0.52734 0 1.0078 0.21484 1.3555 0.56641 0.34766 0.34766 0.56641 0.82812 0.56641 1.3555v7.2891c-2.0781-0.73047-4.2539-1.0977-6.4297-1.0977-3.6016-0.003906-7.207 0.98828-10.359 2.9727h-24.742c-0.66016 0-1.1992 0.53516-1.1992 1.1992 0 0.66016 0.53516 1.1992 1.1992 1.1992h21.676c-0.10156 0.097656-0.20703 0.19922-0.30859 0.30078l-0.003906 0.003906-0.003906-0.003906c-0.023438 0.023437-0.046875 0.046875-0.066406 0.070313-1.918 1.9336-3.3477 4.168-4.2852 6.5508h-17.012c-0.66016 0-1.1992 0.53516-1.1992 1.1992 0 0.66016 0.53516 1.1992 1.1992 1.1992h16.246c-0.38672 1.5469-0.58203 3.1289-0.58203 4.7109zm7.3359-11.98c0.019531-0.019531 0.039062-0.035156 0.0625-0.058594l-0.003906-0.003906c0.81641-0.81641 1.6953-1.5312 2.6211-2.1445 0.046874-0.027344 0.09375-0.054688 0.13281-0.089844 2.8164-1.832 6.0547-2.7461 9.293-2.7422 2.4062 0.003907 4.8125 0.51563 7.0469 1.5312 0.050781 0.027344 0.10547 0.054688 0.16406 0.074219 1.7227 0.80859 3.3398 1.9219 4.7695 3.3398 0.019531 0.019531 0.035156 0.039063 0.058593 0.0625l0.003907-0.003906c2.8594 2.8672 4.4844 6.4922 4.8789 10.223 0.40234 3.8008-0.46875 7.707-2.6133 11.027-0.31641 0.46484-0.27344 1.1016 0.14063 1.5156l0.66797 0.66797c0.019532 0.023438 0.039063 0.046876 0.0625 0.066407l0.003906-0.003907c0.070313 0.070313 0.10547 0.16406 0.10547 0.26172 0 0.078125-0.027343 0.16016-0.078125 0.22656l-0.03125 0.03125 0.003906 0.003906-3.2344 3.2266c-0.070313 0.070313-0.16797 0.10938-0.26172 0.10938s-0.1875-0.035157-0.25781-0.10547l-0.69531-0.69531c-0.38672-0.42188-1.0312-0.51953-1.5273-0.19922-0.64844 0.41797-1.3164 0.78516-2.0039 1.1055-0.042969 0.015625-0.085938 0.035156-0.12891 0.058594-2.8164 1.2852-5.9062 1.7656-8.9297 1.4414-3.7305-0.40234-7.3555-2.0352-10.215-4.9023-0.035156-0.035156-0.066406-0.070312-0.10156-0.10547-0.035156-0.042969-0.074219-0.082032-0.11328-0.11719-2.3594-2.4492-3.8398-5.4336-4.4453-8.5508-0.007812-0.066406-0.019531-0.12891-0.035156-0.1875-0.1875-1.0195-0.27734-2.0547-0.27734-3.0898 0.003906-1.8359 0.30078-3.6719 0.89453-5.4297 0.027344-0.058594 0.046875-0.12109 0.0625-0.18359 0.8125-2.3203 2.1445-4.5039 3.9922-6.3633zm34.312 28.531c0.32812-0.12891 0.67969-0.19141 1.0312-0.19141 0.71875 0 1.4414 0.27344 1.9883 0.82031l8.75 8.7578 0.003907-0.003906 0.003906 0.003906v0.003906c0.69531 0.69922 1.0469 1.6211 1.043 2.5391 0 0.92188-0.35156 1.8398-1.0508 2.5391l0.003907 0.003906-0.003907 0.003907h-0.003906l-3.0664 3.0547c-0.69922 0.69922-1.6211 1.0469-2.543 1.0469s-1.8477-0.35156-2.5469-1.0547l-8.75-8.7578-0.003906 0.003906-0.003907-0.003906v-0.003906c-0.54297-0.54688-0.81641-1.2617-0.8125-1.9805 0-0.36719 0.070313-0.73438 0.21484-1.082l-2.3477-2.3359v18.168c0 2.6406-1.0781 5.0391-2.8164 6.7773-1.7383 1.7383-4.1367 2.8164-6.7773 2.8164h-49.906c-2.6406 0-5.0391-1.0781-6.7773-2.8164-1.7383-1.7383-2.8164-4.1367-2.8164-6.7773v-63.676c0-2.6406 1.0781-5.0391 2.8164-6.7773 1.7383-1.7383 4.1367-2.8164 6.7773-2.8164h9.0859v-1.1602c0-0.66016 0.53516-1.1992 1.1992-1.1992h7.0664c0.46484-1.1016 1.3438-2.0547 2.5039-2.7695 1.375-0.84375 3.1562-1.3516 5.0938-1.3516s3.7227 0.51172 5.0938 1.3516c1.1602 0.71094 2.0391 1.6641 2.5039 2.7695h7.0664c0.66016 0 1.1992 0.53516 1.1992 1.1992v1.1602h9.0859c2.6406 0 5.0391 1.0781 6.7773 2.8164s2.8164 4.1367 2.8164 6.7773v12.281c3.0273 3.2031 4.7578 7.1875 5.1875 11.281 0.42578 4.0234-0.40625 8.1602-2.4961 11.77l0.003906 0.003906c0.023438 0.019531 0.042969 0.039063 0.0625 0.058594l-0.003906 0.003906 0.003906 0.003907c0.53516 0.53516 0.80078 1.2422 0.80078 1.9453 0 0.089844-0.003906 0.17969-0.011719 0.26953l4.5508 4.5234zm-4.207 3.8633 2.3516-2.3438-3.9414-3.918-2.3008 2.2969v0.097657zm4.9375-1.5469-4.1875 4.1719 0.003906 0.003906-0.003906 0.003907h-0.003907c-0.078124 0.078125-0.11719 0.18359-0.11719 0.28906s0.039063 0.21094 0.11719 0.29297l0.003907-0.003906 0.003906 0.003906v0.003906l8.7539 8.7617c0.23438 0.23438 0.54297 0.35156 0.85547 0.35156s0.625-0.11719 0.85938-0.35156l3.0625-3.0508-0.003906-0.003906 0.003906-0.003907h0.003906c0.23438-0.23438 0.35156-0.53906 0.35156-0.84766s-0.11719-0.61719-0.34766-0.85156l-0.003907 0.003907-0.003906-0.003907v-0.003906l-8.7539-8.7617c-0.078125-0.078126-0.1875-0.12109-0.29297-0.12109-0.10938 0-0.21875 0.039062-0.30078 0.12109zm-28.402-17.594c-0.51562-0.41016-0.59766-1.1602-0.1875-1.6758s1.1602-0.59766 1.6758-0.1875l2.3125 1.8516 5.8555-4.9336c0.50391-0.42578 1.2578-0.35938 1.6797 0.14453 0.42578 0.50391 0.35938 1.2578-0.14453 1.6797l-6.6055 5.5625c-0.42578 0.35937-1.0586 0.37891-1.5117 0.019531l-3.0781-2.4609z" fill="#005e64" fill-rule="evenodd"/></svg>